# xmcd CD database file
#
# Track frame offsets:
#	150
#	2110
#	11144
#	22390
#	33967
#	35509
#	42490
#	43366
#	52228
#	56022
#	71841
#	73801
#	82745
#	87301
#	102715
#	104549
#	111669
#	117698
#	119466
#	138976
#	140146
#	148571
#	150327
#	156530
#	159416
#	169502
#	176589
#	178876
#	186890
#	188815
#	205357
#	206613
#	216556
#	218330
#	226555
#	229428
#	238396
#	239192
#	245407
#	255251
#	255835
#	263712
#	275916
#	278303
#	289541
#	290745
#	298347
#	304597
#	305462
#	314295
#	315060
#	329169
#	330518
#	338882
#	342084
#	352598
#
# Disc length: 4757 seconds
#
# Revision: 0
# Processed by: cddbd v1.5.1PL2 Copyright (c) Steve Scherf et al.
# Submitted via: CDex 1.51
#
DISCID=6f129338
DTITLE=Cesar Menote e Fabiano - As Melhores
DYEAR=2006
DGENRE=Country
TTITLE0=Artista Desconhecido - Faixa 1
TTITLE1=Artista Desconhecido - Faixa 2
TTITLE2=Artista Desconhecido - Faixa 3
TTITLE3=Artista Desconhecido - Faixa 4
TTITLE4=Artista Desconhecido - Faixa 5
TTITLE5=Artista Desconhecido - Faixa 6
TTITLE6=Artista Desconhecido - Faixa 7
TTITLE7=Artista Desconhecido - Faixa 8
TTITLE8=Artista Desconhecido - Faixa 9
TTITLE9=Artista Desconhecido - Faixa 10
TTITLE10=Artista Desconhecido - Faixa 11
TTITLE11=Artista Desconhecido - Faixa 12
TTITLE12=Artista Desconhecido - Faixa 13
TTITLE13=Artista Desconhecido - Faixa 14
TTITLE14=Artista Desconhecido - Faixa 15
TTITLE15=Artista Desconhecido - Faixa 16
TTITLE16=Artista Desconhecido - Faixa 17
TTITLE17=Artista Desconhecido - Faixa 18
TTITLE18=Artista Desconhecido - Faixa 19
TTITLE19=Artista Desconhecido - Faixa 20
TTITLE20=Artista Desconhecido - Faixa 21
TTITLE21=Artista Desconhecido - Faixa 22
TTITLE22=Artista Desconhecido - Faixa 23
TTITLE23=Artista Desconhecido - Faixa 24
TTITLE24=Artista Desconhecido - Faixa 25
TTITLE25=Artista Desconhecido - Faixa 26
TTITLE26=Artista Desconhecido - Faixa 27
TTITLE27=Artista Desconhecido - Faixa 28
TTITLE28=Artista Desconhecido - Faixa 29
TTITLE29=Artista Desconhecido - Faixa 30
TTITLE30=Artista Desconhecido - Faixa 31
TTITLE31=Artista Desconhecido - Faixa 32
TTITLE32=Artista Desconhecido - Faixa 33
TTITLE33=Artista Desconhecido - Faixa 34
TTITLE34=Artista Desconhecido - Faixa 35
TTITLE35=Artista Desconhecido - Faixa 36
TTITLE36=Artista Desconhecido - Faixa 37
TTITLE37=Artista Desconhecido - Faixa 38
TTITLE38=Artista Desconhecido - Faixa 39
TTITLE39=Artista Desconhecido - Faixa 40
TTITLE40=Artista Desconhecido - Faixa 41
TTITLE41=Artista Desconhecido - Faixa 42
TTITLE42=Artista Desconhecido - Faixa 43
TTITLE43=Artista Desconhecido - Faixa 44
TTITLE44=Artista Desconhecido - Faixa 45
TTITLE45=Artista Desconhecido - Faixa 46
TTITLE46=Artista Desconhecido - Faixa 47
TTITLE47=Artista Desconhecido - Faixa 48
TTITLE48=Artista Desconhecido - Faixa 49
TTITLE49=Artista Desconhecido - Faixa 50
TTITLE50=Artista Desconhecido - Faixa 51
TTITLE51=Artista Desconhecido - Faixa 52
TTITLE52=Artista Desconhecido - Faixa 53
TTITLE53=Artista Desconhecido - Faixa 54
TTITLE54=Artista Desconhecido - Faixa 55
TTITLE55=Artista Desconhecido - Faixa 56
EXTD=YEAR: 2006
EXTT0=
EXTT1=
EXTT2=
EXTT3=
EXTT4=
EXTT5=
EXTT6=
EXTT7=
EXTT8=
EXTT9=
EXTT10=
EXTT11=
EXTT12=
EXTT13=
EXTT14=
EXTT15=
EXTT16=
EXTT17=
EXTT18=
EXTT19=
EXTT20=
EXTT21=
EXTT22=
EXTT23=
EXTT24=
EXTT25=
EXTT26=
EXTT27=
EXTT28=
EXTT29=
EXTT30=
EXTT31=
EXTT32=
EXTT33=
EXTT34=
EXTT35=
EXTT36=
EXTT37=
EXTT38=
EXTT39=
EXTT40=
EXTT41=
EXTT42=
EXTT43=
EXTT44=
EXTT45=
EXTT46=
EXTT47=
EXTT48=
EXTT49=
EXTT50=
EXTT51=
EXTT52=
EXTT53=
EXTT54=
EXTT55=
PLAYORDER=
